<ttFont>
<head>
    <!-- Most of this table will be recalculated by the compiler -->
    <tableVersion value="1.0"/>
    <fontRevision value="1.0"/>
    <checkSumAdjustment value="0xe610009b"/>
    <magicNumber value="0x5f0f3cf5"/>
    <flags value="00000000 00000011"/>
    <unitsPerEm value="1024"/>
    <created value="Mon Apr 21 19:26:04 2025"/>
    <modified value="Tue Apr 22 16:46:33 2025"/>
    <xMin value="20"/>
    <yMin value="-260"/>
    <xMax value="1240"/>
    <yMax value="960"/>
    <macStyle value="00000000 00000000"/>
    <lowestRecPPEM value="6"/>
    <fontDirectionHint value="2"/>
    <indexToLocFormat value="0"/>
    <glyphDataFormat value="0"/>
  </head>
    <TTGlyph name=".notdef" xMin="51" yMin="-250" xMax="461" yMax="950">
      <contour>
        <pt x="51" y="-250" on="1"/>
        <pt x="51" y="950" on="1"/>
        <pt x="461" y="950" on="1"/>
        <pt x="461" y="-250" on="1"/>
      </contour>
      <contour>
        <pt x="102" y="-199" on="1"/>
        <pt x="410" y="-199" on="1"/>
        <pt x="410" y="899" on="1"/>
        <pt x="102" y="899" on="1"/>
      </contour>
    </TTGlyph>
    <TTGlyph name="arrowdown" xMin="267" yMin="-85" xMax="733" yMax="840">
      <contour>
        <pt x="534" y="69" on="1" overlap="1"/>
        <pt x="564" y="108" on="0"/>
        <pt x="652" y="198" on="0"/>
        <pt x="698" y="231" on="1"/>
        <pt x="733" y="171" on="1"/>
        <pt x="689" y="138" on="0"/>
        <pt x="604" y="52" on="0"/>
        <pt x="529" y="-40" on="0"/>
        <pt x="500" y="-85" on="1"/>
        <pt x="472" y="-40" on="0"/>
        <pt x="396" y="52" on="0"/>
        <pt x="311" y="138" on="0"/>
        <pt x="267" y="171" on="1"/>
        <pt x="302" y="231" on="1"/>
        <pt x="348" y="198" on="0"/>
        <pt x="437" y="108" on="0"/>
        <pt x="466" y="69" on="1"/>
        <pt x="466" y="840" on="1"/>
        <pt x="534" y="840" on="1"/>
      </contour>
    </TTGlyph>
    <TTGlyph name="arrowup" xMin="267" yMin="-80" xMax="733" yMax="845">
      <contour>
        <pt x="466" y="691" on="1" overlap="1"/>
        <pt x="437" y="652" on="0"/>
        <pt x="348" y="563" on="0"/>
        <pt x="302" y="529" on="1"/>
        <pt x="267" y="589" on="1"/>
        <pt x="311" y="623" on="0"/>
        <pt x="396" y="708" on="0"/>
        <pt x="472" y="801" on="0"/>
        <pt x="500" y="845" on="1"/>
        <pt x="529" y="801" on="0"/>
        <pt x="604" y="708" on="0"/>
        <pt x="689" y="623" on="0"/>
        <pt x="733" y="589" on="1"/>
        <pt x="698" y="529" on="1"/>
        <pt x="652" y="563" on="0"/>
        <pt x="564" y="652" on="0"/>
        <pt x="534" y="691" on="1"/>
        <pt x="534" y="-80" on="1"/>
        <pt x="466" y="-80" on="1"/>
      </contour>
    </TTGlyph>
    <TTGlyph name="d" xMin="53" yMin="-13" xMax="528" yMax="796">
      <contour>
        <pt x="277" y="-13" on="1" overlap="1"/>
        <pt x="209" y="-13" on="0"/>
        <pt x="108" y="53" on="0"/>
        <pt x="53" y="180" on="0"/>
        <pt x="53" y="271" on="1"/>
        <pt x="53" y="359" on="0"/>
        <pt x="119" y="487" on="0"/>
        <pt x="226" y="557" on="0"/>
        <pt x="288" y="557" on="1"/>
        <pt x="336" y="557" on="0"/>
        <pt x="405" y="524" on="0"/>
        <pt x="441" y="494" on="1"/>
        <pt x="436" y="587" on="1"/>
        <pt x="436" y="796" on="1"/>
        <pt x="528" y="796" on="1"/>
        <pt x="528" y="0" on="1"/>
        <pt x="453" y="0" on="1"/>
        <pt x="445" y="64" on="1"/>
        <pt x="442" y="64" on="1"/>
        <pt x="410" y="32" on="0"/>
        <pt x="326" y="-13" on="0"/>
      </contour>
      <contour>
        <pt x="297" y="64" on="1"/>
        <pt x="335" y="64" on="0"/>
        <pt x="403" y="101" on="0"/>
        <pt x="436" y="138" on="1"/>
        <pt x="436" y="423" on="1"/>
        <pt x="402" y="454" on="0"/>
        <pt x="338" y="480" on="0"/>
        <pt x="304" y="480" on="1"/>
        <pt x="261" y="480" on="0"/>
        <pt x="190" y="427" on="0"/>
        <pt x="147" y="334" on="0"/>
        <pt x="147" y="272" on="1"/>
        <pt x="147" y="207" on="0"/>
        <pt x="183" y="113" on="0"/>
        <pt x="250" y="64" on="0"/>
      </contour>
    </TTGlyph>
    <TTGlyph name="five" xMin="27" yMin="-13" xMax="502" yMax="733">
      <contour>
        <pt x="262" y="-13" on="1" overlap="1"/>
        <pt x="205" y="-13" on="0"/>
        <pt x="118" y="15" on="0"/>
        <pt x="53" y="59" on="0"/>
        <pt x="27" y="84" on="1"/>
        <pt x="73" y="144" on="1"/>
        <pt x="94" y="123" on="0"/>
        <pt x="145" y="86" on="0"/>
        <pt x="211" y="63" on="0"/>
        <pt x="253" y="63" on="1"/>
        <pt x="296" y="63" on="0"/>
        <pt x="367" y="105" on="0"/>
        <pt x="409" y="183" on="0"/>
        <pt x="409" y="236" on="1"/>
        <pt x="409" y="314" on="0"/>
        <pt x="326" y="403" on="0"/>
        <pt x="257" y="403" on="1"/>
        <pt x="221" y="403" on="0"/>
        <pt x="167" y="381" on="0"/>
        <pt x="135" y="360" on="1"/>
        <pt x="86" y="391" on="1"/>
        <pt x="110" y="733" on="1"/>
        <pt x="466" y="733" on="1"/>
        <pt x="466" y="655" on="1"/>
        <pt x="190" y="655" on="1"/>
        <pt x="171" y="443" on="1"/>
        <pt x="195" y="457" on="0"/>
        <pt x="248" y="472" on="0"/>
        <pt x="281" y="472" on="1"/>
        <pt x="342" y="472" on="0"/>
        <pt x="442" y="423" on="0"/>
        <pt x="502" y="319" on="0"/>
        <pt x="502" y="238" on="1"/>
        <pt x="502" y="158" on="0"/>
        <pt x="433" y="46" on="0"/>
        <pt x="323" y="-13" on="0"/>
      </contour>
    </TTGlyph>
    <TTGlyph name="four" xMin="20" yMin="0" xMax="524" yMax="733">
      <contour>
        <pt x="340" y="0" on="1" overlap="1"/>
        <pt x="340" y="500" on="1"/>
        <pt x="340" y="527" on="0"/>
        <pt x="344" y="605" on="0"/>
        <pt x="345" y="633" on="1"/>
        <pt x="341" y="633" on="1"/>
        <pt x="327" y="607" on="0"/>
        <pt x="298" y="552" on="0"/>
        <pt x="282" y="525" on="1"/>
        <pt x="115" y="275" on="1"/>
        <pt x="524" y="275" on="1"/>
        <pt x="524" y="202" on="1"/>
        <pt x="20" y="202" on="1"/>
        <pt x="20" y="262" on="1"/>
        <pt x="325" y="733" on="1"/>
        <pt x="426" y="733" on="1"/>
        <pt x="426" y="0" on="1"/>
      </contour>
    </TTGlyph>
    <TTGlyph name="glyph00029" xMin="361" yMin="-26" xMax="886" yMax="721">
      <contour>
        <pt x="788" y="550" on="1"/>
        <pt x="805" y="548" on="0"/>
        <pt x="824" y="554" on="1"/>
        <pt x="857" y="566" on="0"/>
        <pt x="886" y="629" on="0"/>
        <pt x="874" y="660" on="1"/>
        <pt x="862" y="693" on="0"/>
        <pt x="800" y="721" on="0"/>
        <pt x="768" y="710" on="1"/>
        <pt x="736" y="698" on="0"/>
        <pt x="707" y="636" on="0"/>
        <pt x="719" y="604" on="1"/>
        <pt x="721" y="599" on="0"/>
        <pt x="724" y="591" on="0"/>
        <pt x="727" y="587" on="1"/>
        <pt x="461" y="145" on="1"/>
        <pt x="440" y="148" on="0"/>
        <pt x="423" y="141" on="1"/>
        <pt x="390" y="129" on="0"/>
        <pt x="361" y="67" on="0"/>
        <pt x="373" y="35" on="1"/>
        <pt x="385" y="2" on="0"/>
        <pt x="447" y="-26" on="0"/>
        <pt x="480" y="-15" on="1"/>
        <pt x="511" y="-3" on="0"/>
        <pt x="540" y="59" on="0"/>
        <pt x="528" y="92" on="1"/>
        <pt x="527" y="96" on="0"/>
        <pt x="523" y="103" on="0"/>
        <pt x="521" y="107" on="1"/>
        <pt x="788" y="550" on="1"/>
      </contour>
    </TTGlyph>
    <TTGlyph name="glyph00030" xMin="154" yMin="46" xMax="1096" yMax="654">
      <contour>
        <pt x="308" y="130" on="1"/>
        <pt x="289" y="130" on="0"/>
        <pt x="273" y="151" on="0"/>
        <pt x="279" y="170" on="1"/>
        <pt x="406" y="542" on="1"/>
        <pt x="418" y="570" on="0"/>
        <pt x="446" y="570" on="1"/>
        <pt x="943" y="570" on="1"/>
        <pt x="962" y="570" on="0"/>
        <pt x="977" y="547" on="0"/>
        <pt x="971" y="529" on="1"/>
        <pt x="843" y="158" on="1"/>
        <pt x="833" y="130" on="0"/>
        <pt x="804" y="130" on="1"/>
        <pt x="308" y="130" on="1"/>
      </contour>
      <contour>
        <pt x="384" y="654" on="1"/>
        <pt x="357" y="654" on="0"/>
        <pt x="345" y="626" on="1"/>
        <pt x="160" y="86" on="1"/>
        <pt x="154" y="67" on="0"/>
        <pt x="169" y="46" on="0"/>
        <pt x="188" y="46" on="1"/>
        <pt x="866" y="46" on="1"/>
        <pt x="895" y="46" on="0"/>
        <pt x="905" y="74" on="1"/>
        <pt x="1090" y="613" on="1"/>
        <pt x="1096" y="631" on="0"/>
        <pt x="1081" y="654" on="0"/>
        <pt x="1062" y="654" on="1"/>
        <pt x="384" y="654" on="1"/>
      </contour>
    </TTGlyph>
    <TTGlyph name="glyph00031" xMin="208" yMin="-92" xMax="1076" yMax="795">
      <contour>
        <pt x="863" y="55" on="1"/>
        <pt x="852" y="44" on="0"/>
        <pt x="834" y="51" on="0"/>
        <pt x="834" y="66" on="1"/>
        <pt x="834" y="472" on="1"/>
        <pt x="834" y="489" on="0"/>
        <pt x="845" y="501" on="1"/>
        <pt x="982" y="649" on="1"/>
        <pt x="992" y="660" on="0"/>
        <pt x="1011" y="653" on="0"/>
        <pt x="1011" y="637" on="1"/>
        <pt x="1011" y="232" on="1"/>
        <pt x="1011" y="216" on="0"/>
        <pt x="1000" y="203" on="1"/>
        <pt x="863" y="55" on="1"/>
      </contour>
      <contour>
        <pt x="355" y="534" on="1"/>
        <pt x="339" y="534" on="0"/>
        <pt x="332" y="552" on="0"/>
        <pt x="343" y="563" on="1"/>
        <pt x="486" y="718" on="1"/>
        <pt x="498" y="730" on="0"/>
        <pt x="514" y="730" on="1"/>
        <pt x="930" y="730" on="1"/>
        <pt x="945" y="730" on="0"/>
        <pt x="952" y="712" on="0"/>
        <pt x="942" y="701" on="1"/>
        <pt x="798" y="546" on="1"/>
        <pt x="786" y="534" on="0"/>
        <pt x="770" y="534" on="1"/>
        <pt x="355" y="534" on="1"/>
      </contour>
      <contour>
        <pt x="297" y="-26" on="1"/>
        <pt x="274" y="-26" on="0"/>
        <pt x="274" y="-3" on="1"/>
        <pt x="274" y="445" on="1"/>
        <pt x="274" y="469" on="0"/>
        <pt x="297" y="469" on="1"/>
        <pt x="745" y="469" on="1"/>
        <pt x="768" y="469" on="0"/>
        <pt x="768" y="445" on="1"/>
        <pt x="768" y="-3" on="1"/>
        <pt x="768" y="-26" on="0"/>
        <pt x="745" y="-26" on="1"/>
        <pt x="297" y="-26" on="1"/>
      </contour>
      <contour>
        <pt x="208" y="-59" on="1"/>
        <pt x="208" y="-72" on="0"/>
        <pt x="228" y="-92" on="0"/>
        <pt x="241" y="-92" on="1"/>
        <pt x="798" y="-92" on="1"/>
        <pt x="815" y="-92" on="0"/>
        <pt x="826" y="-79" on="1"/>
        <pt x="1065" y="177" on="1"/>
        <pt x="1076" y="190" on="0"/>
        <pt x="1076" y="206" on="1"/>
        <pt x="1076" y="772" on="1"/>
        <pt x="1076" y="795" on="0"/>
        <pt x="1053" y="795" on="1"/>
        <pt x="486" y="795" on="1"/>
        <pt x="469" y="795" on="0"/>
        <pt x="458" y="783" on="1"/>
        <pt x="219" y="526" on="1"/>
        <pt x="208" y="514" on="0"/>
        <pt x="208" y="497" on="1"/>
        <pt x="208" y="-59" on="1"/>
      </contour>
    </TTGlyph>
    <TTGlyph name="glyph00032" xMin="55" yMin="-97" xMax="1021" yMax="949">
      <contour>
        <pt x="808" y="50" on="1"/>
        <pt x="797" y="39" on="0"/>
        <pt x="779" y="46" on="0"/>
        <pt x="779" y="61" on="1"/>
        <pt x="779" y="467" on="1"/>
        <pt x="779" y="484" on="0"/>
        <pt x="790" y="496" on="1"/>
        <pt x="927" y="644" on="1"/>
        <pt x="937" y="655" on="0"/>
        <pt x="956" y="648" on="0"/>
        <pt x="956" y="632" on="1"/>
        <pt x="956" y="227" on="1"/>
        <pt x="956" y="211" on="0"/>
        <pt x="945" y="198" on="1"/>
        <pt x="808" y="50" on="1"/>
      </contour>
      <contour>
        <pt x="300" y="529" on="1"/>
        <pt x="284" y="529" on="0"/>
        <pt x="277" y="547" on="0"/>
        <pt x="288" y="558" on="1"/>
        <pt x="431" y="713" on="1"/>
        <pt x="443" y="725" on="0"/>
        <pt x="459" y="725" on="1"/>
        <pt x="875" y="725" on="1"/>
        <pt x="890" y="725" on="0"/>
        <pt x="897" y="707" on="0"/>
        <pt x="887" y="696" on="1"/>
        <pt x="743" y="541" on="1"/>
        <pt x="731" y="529" on="0"/>
        <pt x="715" y="529" on="1"/>
        <pt x="300" y="529" on="1"/>
      </contour>
      <contour>
        <pt x="242" y="-31" on="1"/>
        <pt x="219" y="-31" on="0"/>
        <pt x="219" y="-8" on="1"/>
        <pt x="219" y="440" on="1"/>
        <pt x="219" y="464" on="0"/>
        <pt x="242" y="464" on="1"/>
        <pt x="690" y="464" on="1"/>
        <pt x="713" y="464" on="0"/>
        <pt x="713" y="440" on="1"/>
        <pt x="713" y="-8" on="1"/>
        <pt x="713" y="-31" on="0"/>
        <pt x="690" y="-31" on="1"/>
        <pt x="242" y="-31" on="1"/>
      </contour>
      <contour>
        <pt x="153" y="-64" on="1"/>
        <pt x="153" y="-77" on="0"/>
        <pt x="173" y="-97" on="0"/>
        <pt x="186" y="-97" on="1"/>
        <pt x="743" y="-97" on="1"/>
        <pt x="760" y="-97" on="0"/>
        <pt x="771" y="-84" on="1"/>
        <pt x="1010" y="172" on="1"/>
        <pt x="1021" y="185" on="0"/>
        <pt x="1021" y="201" on="1"/>
        <pt x="1021" y="767" on="1"/>
        <pt x="1021" y="790" on="0"/>
        <pt x="998" y="790" on="1"/>
        <pt x="431" y="790" on="1"/>
        <pt x="414" y="790" on="0"/>
        <pt x="403" y="778" on="1"/>
        <pt x="164" y="521" on="1"/>
        <pt x="153" y="509" on="0"/>
        <pt x="153" y="492" on="1"/>
        <pt x="153" y="-64" on="1"/>
      </contour>
      <contour>
        <pt x="88" y="604" on="1"/>
        <pt x="100" y="604" on="0"/>
        <pt x="111" y="613" on="1"/>
        <pt x="370" y="872" on="1"/>
        <pt x="381" y="884" on="0"/>
        <pt x="397" y="884" on="1"/>
        <pt x="928" y="884" on="1"/>
        <pt x="941" y="884" on="0"/>
        <pt x="961" y="903" on="0"/>
        <pt x="961" y="916" on="1"/>
        <pt x="961" y="930" on="0"/>
        <pt x="941" y="949" on="0"/>
        <pt x="928" y="949" on="1"/>
        <pt x="372" y="949" on="1"/>
        <pt x="355" y="949" on="0"/>
        <pt x="343" y="937" on="1"/>
        <pt x="64" y="660" on="1"/>
        <pt x="55" y="649" on="0"/>
        <pt x="55" y="636" on="1"/>
        <pt x="55" y="623" on="0"/>
        <pt x="75" y="604" on="0"/>
        <pt x="88" y="604" on="1"/>
      </contour>
    </TTGlyph>
    <TTGlyph name="glyph00033" xMin="44" yMin="-250" xMax="1071" yMax="950">
      <contour>
        <pt x="203" y="-61" on="1"/>
        <pt x="203" y="-74" on="0"/>
        <pt x="223" y="-94" on="0"/>
        <pt x="236" y="-94" on="1"/>
        <pt x="793" y="-94" on="1"/>
        <pt x="810" y="-94" on="0"/>
        <pt x="821" y="-81" on="1"/>
        <pt x="1060" y="175" on="1"/>
        <pt x="1071" y="188" on="0"/>
        <pt x="1071" y="204" on="1"/>
        <pt x="1071" y="770" on="1"/>
        <pt x="1071" y="793" on="0"/>
        <pt x="1048" y="793" on="1"/>
        <pt x="481" y="793" on="1"/>
        <pt x="464" y="793" on="0"/>
        <pt x="453" y="781" on="1"/>
        <pt x="214" y="524" on="1"/>
        <pt x="203" y="512" on="0"/>
        <pt x="203" y="495" on="1"/>
      </contour>
      <contour>
        <pt x="292" y="-28" on="1"/>
        <pt x="269" y="-28" on="0"/>
        <pt x="269" y="-5" on="1"/>
        <pt x="269" y="443" on="1"/>
        <pt x="269" y="467" on="0"/>
        <pt x="292" y="467" on="1"/>
        <pt x="740" y="467" on="1"/>
        <pt x="763" y="467" on="0"/>
        <pt x="763" y="443" on="1"/>
        <pt x="763" y="-5" on="1"/>
        <pt x="763" y="-28" on="0"/>
        <pt x="740" y="-28" on="1"/>
      </contour>
      <contour>
        <pt x="350" y="532" on="1"/>
        <pt x="334" y="532" on="0"/>
        <pt x="327" y="550" on="0"/>
        <pt x="338" y="561" on="1"/>
        <pt x="481" y="716" on="1"/>
        <pt x="493" y="728" on="0"/>
        <pt x="509" y="728" on="1"/>
        <pt x="925" y="728" on="1"/>
        <pt x="940" y="728" on="0"/>
        <pt x="947" y="710" on="0"/>
        <pt x="937" y="699" on="1"/>
        <pt x="793" y="544" on="1"/>
        <pt x="781" y="532" on="0"/>
        <pt x="765" y="532" on="1"/>
      </contour>
      <contour>
        <pt x="858" y="53" on="1"/>
        <pt x="847" y="42" on="0"/>
        <pt x="829" y="49" on="0"/>
        <pt x="829" y="64" on="1"/>
        <pt x="829" y="470" on="1"/>
        <pt x="829" y="487" on="0"/>
        <pt x="840" y="499" on="1"/>
        <pt x="977" y="647" on="1"/>
        <pt x="987" y="658" on="0"/>
        <pt x="1006" y="651" on="0"/>
        <pt x="1006" y="635" on="1"/>
        <pt x="1006" y="230" on="1"/>
        <pt x="1006" y="214" on="0"/>
        <pt x="995" y="201" on="1"/>
      </contour>
      <contour>
        <pt x="77" y="373" on="1"/>
        <pt x="64" y="373" on="0"/>
        <pt x="44" y="354" on="0"/>
        <pt x="44" y="340" on="1"/>
        <pt x="44" y="-220" on="1"/>
        <pt x="44" y="-242" on="0"/>
        <pt x="65" y="-250" on="1"/>
        <pt x="649" y="-250" on="1"/>
        <pt x="670" y="-242" on="0"/>
        <pt x="670" y="-220" on="1"/>
        <pt x="670" y="-206" on="0"/>
        <pt x="651" y="-187" on="0"/>
        <pt x="637" y="-187" on="1"/>
        <pt x="133" y="-187" on="1"/>
        <pt x="110" y="-187" on="0"/>
        <pt x="110" y="-164" on="1"/>
        <pt x="110" y="340" on="1"/>
        <pt x="110" y="354" on="0"/>
        <pt x="90" y="373" on="0"/>
      </contour>
      <contour>
        <pt x="147" y="607" on="1"/>
        <pt x="161" y="607" on="0"/>
        <pt x="171" y="617" on="1"/>
        <pt x="411" y="874" on="1"/>
        <pt x="422" y="887" on="0"/>
        <pt x="439" y="887" on="1"/>
        <pt x="969" y="887" on="1"/>
        <pt x="982" y="887" on="0"/>
        <pt x="1001" y="906" on="0"/>
        <pt x="1001" y="919" on="1"/>
        <pt x="1001" y="942" on="0"/>
        <pt x="979" y="950" on="1"/>
        <pt x="398" y="950" on="1"/>
        <pt x="390" y="947" on="0"/>
        <pt x="383" y="940" on="1"/>
        <pt x="123" y="662" on="1"/>
        <pt x="115" y="652" on="0"/>
        <pt x="115" y="639" on="1"/>
        <pt x="115" y="626" on="0"/>
        <pt x="134" y="607" on="0"/>
      </contour>
    </TTGlyph>
    <TTGlyph name="glyph00034" xMin="50" yMin="-250" xMax="1238" yMax="950">
      <contour>
        <pt x="209" y="-59" on="1"/>
        <pt x="209" y="-73" on="0"/>
        <pt x="228" y="-92" on="0"/>
        <pt x="241" y="-92" on="1"/>
        <pt x="799" y="-92" on="1"/>
        <pt x="816" y="-92" on="0"/>
        <pt x="827" y="-80" on="1"/>
        <pt x="1066" y="177" on="1"/>
        <pt x="1077" y="189" on="0"/>
        <pt x="1077" y="206" on="1"/>
        <pt x="1077" y="771" on="1"/>
        <pt x="1077" y="795" on="0"/>
        <pt x="1053" y="795" on="1"/>
        <pt x="487" y="795" on="1"/>
        <pt x="470" y="795" on="0"/>
        <pt x="459" y="783" on="1"/>
        <pt x="220" y="526" on="1"/>
        <pt x="209" y="513" on="0"/>
        <pt x="209" y="497" on="1"/>
      </contour>
      <contour>
        <pt x="297" y="-27" on="1"/>
        <pt x="274" y="-27" on="0"/>
        <pt x="274" y="-3" on="1"/>
        <pt x="274" y="445" on="1"/>
        <pt x="274" y="468" on="0"/>
        <pt x="297" y="468" on="1"/>
        <pt x="745" y="468" on="1"/>
        <pt x="769" y="468" on="0"/>
        <pt x="769" y="445" on="1"/>
        <pt x="769" y="-3" on="1"/>
        <pt x="769" y="-27" on="0"/>
        <pt x="745" y="-27" on="1"/>
      </contour>
      <contour>
        <pt x="355" y="533" on="1"/>
        <pt x="340" y="533" on="0"/>
        <pt x="333" y="551" on="0"/>
        <pt x="343" y="562" on="1"/>
        <pt x="487" y="717" on="1"/>
        <pt x="499" y="729" on="0"/>
        <pt x="515" y="729" on="1"/>
        <pt x="930" y="729" on="1"/>
        <pt x="946" y="729" on="0"/>
        <pt x="953" y="712" on="0"/>
        <pt x="942" y="700" on="1"/>
        <pt x="799" y="545" on="1"/>
        <pt x="787" y="533" on="0"/>
        <pt x="771" y="533" on="1"/>
      </contour>
      <contour>
        <pt x="863" y="54" on="1"/>
        <pt x="853" y="43" on="0"/>
        <pt x="834" y="50" on="0"/>
        <pt x="834" y="66" on="1"/>
        <pt x="834" y="472" on="1"/>
        <pt x="834" y="488" on="0"/>
        <pt x="845" y="501" on="1"/>
        <pt x="983" y="648" on="1"/>
        <pt x="993" y="659" on="0"/>
        <pt x="1011" y="652" on="0"/>
        <pt x="1011" y="637" on="1"/>
        <pt x="1011" y="232" on="1"/>
        <pt x="1011" y="215" on="0"/>
        <pt x="1000" y="203" on="1"/>
      </contour>
      <contour>
        <pt x="83" y="375" on="1"/>
        <pt x="69" y="375" on="0"/>
        <pt x="50" y="355" on="0"/>
        <pt x="50" y="342" on="1"/>
        <pt x="50" y="-218" on="1"/>
        <pt x="50" y="-230" on="0"/>
        <pt x="65" y="-248" on="0"/>
        <pt x="76" y="-250" on="1"/>
        <pt x="650" y="-250" on="1"/>
        <pt x="661" y="-248" on="0"/>
        <pt x="675" y="-230" on="0"/>
        <pt x="675" y="-218" on="1"/>
        <pt x="675" y="-205" on="0"/>
        <pt x="656" y="-185" on="0"/>
        <pt x="643" y="-185" on="1"/>
        <pt x="139" y="-185" on="1"/>
        <pt x="115" y="-185" on="0"/>
        <pt x="115" y="-162" on="1"/>
        <pt x="115" y="342" on="1"/>
        <pt x="115" y="355" on="0"/>
        <pt x="96" y="375" on="0"/>
      </contour>
      <contour>
        <pt x="1208" y="720" on="1"/>
        <pt x="1194" y="720" on="0"/>
        <pt x="1175" y="701" on="0"/>
        <pt x="1175" y="687" on="1"/>
        <pt x="1175" y="157" on="1"/>
        <pt x="1175" y="141" on="0"/>
        <pt x="1164" y="128" on="1"/>
        <pt x="922" y="-130" on="1"/>
        <pt x="913" y="-140" on="0"/>
        <pt x="913" y="-153" on="1"/>
        <pt x="913" y="-166" on="0"/>
        <pt x="933" y="-185" on="0"/>
        <pt x="946" y="-185" on="1"/>
        <pt x="960" y="-185" on="0"/>
        <pt x="970" y="-175" on="1"/>
        <pt x="1229" y="102" on="1"/>
        <pt x="1235" y="109" on="0"/>
        <pt x="1238" y="116" on="1"/>
        <pt x="1238" y="700" on="1"/>
        <pt x="1229" y="720" on="0"/>
      </contour>
      <contour>
        <pt x="153" y="608" on="1"/>
        <pt x="167" y="608" on="0"/>
        <pt x="177" y="618" on="1"/>
        <pt x="417" y="876" on="1"/>
        <pt x="428" y="888" on="0"/>
        <pt x="445" y="888" on="1"/>
        <pt x="974" y="888" on="1"/>
        <pt x="987" y="888" on="0"/>
        <pt x="1007" y="907" on="0"/>
        <pt x="1007" y="921" on="1"/>
        <pt x="1007" y="941" on="0"/>
        <pt x="988" y="950" on="1"/>
        <pt x="400" y="950" on="1"/>
        <pt x="394" y="947" on="0"/>
        <pt x="389" y="941" on="1"/>
        <pt x="128" y="663" on="1"/>
        <pt x="120" y="653" on="0"/>
        <pt x="120" y="641" on="1"/>
        <pt x="120" y="627" on="0"/>
        <pt x="139" y="608" on="0"/>
      </contour>
    </TTGlyph>
    <TTGlyph name="glyph00035" xMin="448" yMin="292" xMax="802" yMax="918">
      <contour>
        <pt x="658" y="900" on="1"/>
        <pt x="642" y="918" on="0"/>
        <pt x="608" y="918" on="0"/>
        <pt x="592" y="900" on="1"/>
        <pt x="478" y="764" on="1"/>
        <pt x="448" y="726" on="0"/>
        <pt x="469" y="711" on="1"/>
        <pt x="491" y="693" on="0"/>
        <pt x="522" y="725" on="1"/>
        <pt x="541" y="743" on="1"/>
        <pt x="564" y="766" on="0"/>
        <pt x="591" y="757" on="0"/>
        <pt x="591" y="712" on="1"/>
        <pt x="591" y="339" on="1"/>
        <pt x="591" y="292" on="0"/>
        <pt x="625" y="292" on="1"/>
        <pt x="658" y="292" on="0"/>
        <pt x="658" y="339" on="1"/>
        <pt x="658" y="712" on="1"/>
        <pt x="658" y="757" on="0"/>
        <pt x="688" y="764" on="0"/>
        <pt x="716" y="736" on="1"/>
        <pt x="728" y="725" on="1"/>
        <pt x="759" y="693" on="0"/>
        <pt x="781" y="711" on="1"/>
        <pt x="802" y="728" on="0"/>
        <pt x="772" y="764" on="1"/>
        <pt x="658" y="900" on="1"/>
      </contour>
    </TTGlyph>
    <TTGlyph name="glyph00036" xMin="456" yMin="-218" xMax="811" yMax="408">
      <contour>
        <pt x="478" y="-10" on="1"/>
        <pt x="456" y="-26" on="0"/>
        <pt x="487" y="-63" on="1"/>
        <pt x="601" y="-199" on="1"/>
        <pt x="616" y="-218" on="0"/>
        <pt x="651" y="-218" on="0"/>
        <pt x="666" y="-199" on="1"/>
        <pt x="781" y="-63" on="1"/>
        <pt x="811" y="-27" on="0"/>
        <pt x="789" y="-10" on="1"/>
        <pt x="767" y="7" on="0"/>
        <pt x="736" y="-24" on="1"/>
        <pt x="725" y="-35" on="1"/>
        <pt x="696" y="-64" on="0"/>
        <pt x="667" y="-57" on="0"/>
        <pt x="667" y="-12" on="1"/>
        <pt x="667" y="362" on="1"/>
        <pt x="667" y="408" on="0"/>
        <pt x="633" y="408" on="1"/>
        <pt x="600" y="408" on="0"/>
        <pt x="600" y="362" on="1"/>
        <pt x="600" y="-12" on="1"/>
        <pt x="600" y="-57" on="0"/>
        <pt x="572" y="-66" on="0"/>
        <pt x="549" y="-43" on="1"/>
        <pt x="531" y="-24" on="1"/>
        <pt x="499" y="7" on="0"/>
        <pt x="478" y="-10" on="1"/>
      </contour>
    </TTGlyph>
    <TTGlyph name="one" xMin="88" yMin="0" xMax="490" yMax="733">
      <contour>
        <pt x="88" y="0" on="1" overlap="1"/>
        <pt x="88" y="76" on="1"/>
        <pt x="252" y="76" on="1"/>
        <pt x="252" y="623" on="1"/>
        <pt x="121" y="623" on="1"/>
        <pt x="121" y="681" on="1"/>
        <pt x="170" y="690" on="0"/>
        <pt x="243" y="716" on="0"/>
        <pt x="273" y="733" on="1"/>
        <pt x="343" y="733" on="1"/>
        <pt x="343" y="76" on="1"/>
        <pt x="490" y="76" on="1"/>
        <pt x="490" y="0" on="1"/>
      </contour>
    </TTGlyph>
    <TTGlyph name="six" xMin="56" yMin="-13" xMax="512" yMax="746">
      <contour>
        <pt x="301" y="-13" on="1" overlap="1"/>
        <pt x="249" y="-13" on="0"/>
        <pt x="159" y="32" on="0"/>
        <pt x="93" y="123" on="0"/>
        <pt x="56" y="259" on="0"/>
        <pt x="56" y="350" on="1"/>
        <pt x="56" y="457" on="0"/>
        <pt x="100" y="609" on="0"/>
        <pt x="176" y="703" on="0"/>
        <pt x="274" y="746" on="0"/>
        <pt x="327" y="746" on="1"/>
        <pt x="384" y="746" on="0"/>
        <pt x="468" y="704" on="0"/>
        <pt x="499" y="671" on="1"/>
        <pt x="447" y="615" on="1"/>
        <pt x="426" y="641" on="0"/>
        <pt x="364" y="671" on="0"/>
        <pt x="331" y="671" on="1"/>
        <pt x="279" y="671" on="0"/>
        <pt x="193" y="610" on="0"/>
        <pt x="142" y="470" on="0"/>
        <pt x="142" y="350" on="1"/>
        <pt x="142" y="256" on="0"/>
        <pt x="179" y="126" on="0"/>
        <pt x="250" y="59" on="0"/>
        <pt x="301" y="59" on="1"/>
        <pt x="337" y="59" on="0"/>
        <pt x="392" y="101" on="0"/>
        <pt x="425" y="176" on="0"/>
        <pt x="425" y="225" on="1"/>
        <pt x="425" y="275" on="0"/>
        <pt x="396" y="348" on="0"/>
        <pt x="338" y="387" on="0"/>
        <pt x="293" y="387" on="1"/>
        <pt x="258" y="387" on="0"/>
        <pt x="176" y="342" on="0"/>
        <pt x="139" y="287" on="1"/>
        <pt x="136" y="359" on="1"/>
        <pt x="159" y="389" on="0"/>
        <pt x="215" y="432" on="0"/>
        <pt x="278" y="455" on="0"/>
        <pt x="308" y="455" on="1"/>
        <pt x="370" y="455" on="0"/>
        <pt x="461" y="404" on="0"/>
        <pt x="512" y="302" on="0"/>
        <pt x="512" y="225" on="1"/>
        <pt x="512" y="154" on="0"/>
        <pt x="454" y="47" on="0"/>
        <pt x="359" y="-13" on="0"/>
      </contour>
    </TTGlyph>
    <TTGlyph name="three" xMin="29" yMin="-13" xMax="499" yMax="746">
      <contour>
        <pt x="263" y="-13" on="1" overlap="1"/>
        <pt x="206" y="-13" on="0"/>
        <pt x="119" y="15" on="0"/>
        <pt x="53" y="61" on="0"/>
        <pt x="29" y="88" on="1"/>
        <pt x="76" y="147" on="1"/>
        <pt x="108" y="114" on="0"/>
        <pt x="195" y="63" on="0"/>
        <pt x="257" y="63" on="1"/>
        <pt x="301" y="63" on="0"/>
        <pt x="368" y="96" on="0"/>
        <pt x="406" y="157" on="0"/>
        <pt x="406" y="199" on="1"/>
        <pt x="406" y="243" on="0"/>
        <pt x="363" y="309" on="0"/>
        <pt x="263" y="346" on="0"/>
        <pt x="178" y="346" on="1"/>
        <pt x="178" y="416" on="1"/>
        <pt x="254" y="416" on="0"/>
        <pt x="342" y="453" on="0"/>
        <pt x="381" y="517" on="0"/>
        <pt x="381" y="556" on="1"/>
        <pt x="381" y="609" on="0"/>
        <pt x="315" y="672" on="0"/>
        <pt x="257" y="672" on="1"/>
        <pt x="213" y="672" on="0"/>
        <pt x="136" y="632" on="0"/>
        <pt x="105" y="601" on="1"/>
        <pt x="56" y="659" on="1"/>
        <pt x="98" y="697" on="0"/>
        <pt x="197" y="746" on="0"/>
        <pt x="260" y="746" on="1"/>
        <pt x="322" y="746" on="0"/>
        <pt x="419" y="703" on="0"/>
        <pt x="474" y="621" on="0"/>
        <pt x="474" y="563" on="1"/>
        <pt x="474" y="496" on="0"/>
        <pt x="402" y="408" on="0"/>
        <pt x="344" y="387" on="1"/>
        <pt x="344" y="382" on="1"/>
        <pt x="387" y="372" on="0"/>
        <pt x="457" y="322" on="0"/>
        <pt x="499" y="246" on="0"/>
        <pt x="499" y="196" on="1"/>
        <pt x="499" y="131" on="0"/>
        <pt x="435" y="37" on="0"/>
        <pt x="329" y="-13" on="0"/>
      </contour>
    </TTGlyph>
    <TTGlyph name="two" xMin="40" yMin="0" xMax="505" yMax="746">
      <contour>
        <pt x="44" y="0" on="1" overlap="1"/>
        <pt x="44" y="54" on="1"/>
        <pt x="159" y="155" on="0"/>
        <pt x="308" y="321" on="0"/>
        <pt x="380" y="464" on="0"/>
        <pt x="380" y="527" on="1"/>
        <pt x="380" y="569" on="0"/>
        <pt x="351" y="635" on="0"/>
        <pt x="291" y="672" on="0"/>
        <pt x="245" y="672" on="1"/>
        <pt x="200" y="672" on="0"/>
        <pt x="123" y="624" on="0"/>
        <pt x="93" y="587" on="1"/>
        <pt x="40" y="639" on="1"/>
        <pt x="84" y="688" on="0"/>
        <pt x="186" y="746" on="0"/>
        <pt x="256" y="746" on="1"/>
        <pt x="322" y="746" on="0"/>
        <pt x="417" y="693" on="0"/>
        <pt x="470" y="596" on="0"/>
        <pt x="470" y="531" on="1"/>
        <pt x="470" y="458" on="0"/>
        <pt x="397" y="308" on="0"/>
        <pt x="268" y="153" on="0"/>
        <pt x="182" y="72" on="1"/>
        <pt x="211" y="74" on="0"/>
        <pt x="274" y="79" on="0"/>
        <pt x="302" y="79" on="1"/>
        <pt x="505" y="79" on="1"/>
        <pt x="505" y="0" on="1"/>
      </contour>
    </TTGlyph>
    <TTGlyph name="uniE001" xMin="340" yMin="-40" xMax="900" yMax="740">
      <contour>
        <pt x="900" y="740" on="1"/>
        <pt x="340" y="-40" on="1"/>
      </contour>
    </TTGlyph>
    <TTGlyph name="uniE002" xMin="140" yMin="40" xMax="1100" yMax="660">
      <contour>
        <pt x="1100" y="660" on="1"/>
        <pt x="140" y="40" on="1"/>
      </contour>
    </TTGlyph>
    <TTGlyph name="uniE003" xMin="200" yMin="-100" xMax="1080" yMax="800">
      <contour>
        <pt x="1080" y="800" on="1"/>
        <pt x="200" y="-100" on="1"/>
      </contour>
    </TTGlyph>
    <TTGlyph name="uniE004" xMin="40" yMin="-100" xMax="1040" yMax="960">
      <contour>
        <pt x="1040" y="960" on="1"/>
        <pt x="40" y="-100" on="1"/>
      </contour>
    </TTGlyph>
    <TTGlyph name="uniE005" xMin="40" yMin="-260" xMax="1080" yMax="960">
      <contour>
        <pt x="1080" y="960" on="1"/>
        <pt x="40" y="-260" on="1"/>
      </contour>
    </TTGlyph>
    <TTGlyph name="uniE006" xMin="40" yMin="-260" xMax="1240" yMax="960">
      <contour>
        <pt x="1240" y="960" on="1"/>
        <pt x="40" y="-260" on="1"/>
      </contour>
    </TTGlyph>
    <TTGlyph name="uniE011" xMin="440" yMin="280" xMax="800" yMax="940">
      <contour>
        <pt x="800" y="940" on="1"/>
        <pt x="440" y="280" on="1"/>
      </contour>
    </TTGlyph>
    <TTGlyph name="uniE012" xMin="440" yMin="280" xMax="800" yMax="940">
      <contour>
        <pt x="800" y="940" on="1"/>
        <pt x="440" y="280" on="1"/>
      </contour>
    </TTGlyph>
    <TTGlyph name="uniE013" xMin="440" yMin="280" xMax="800" yMax="940">
      <contour>
        <pt x="800" y="940" on="1"/>
        <pt x="440" y="280" on="1"/>
      </contour>
    </TTGlyph>
    <TTGlyph name="uniE014" xMin="440" yMin="280" xMax="800" yMax="940">
      <contour>
        <pt x="800" y="940" on="1"/>
        <pt x="440" y="280" on="1"/>
      </contour>
    </TTGlyph>
    <TTGlyph name="uniE015" xMin="440" yMin="280" xMax="800" yMax="940">
      <contour>
        <pt x="800" y="940" on="1"/>
        <pt x="440" y="280" on="1"/>
      </contour>
    </TTGlyph>
    <TTGlyph name="uniE016" xMin="440" yMin="280" xMax="800" yMax="940">
      <contour>
        <pt x="800" y="940" on="1"/>
        <pt x="440" y="280" on="1"/>
      </contour>
    </TTGlyph>
    <TTGlyph name="uniE021" xMin="460" yMin="-240" xMax="820" yMax="420">
      <contour>
        <pt x="820" y="420" on="1"/>
        <pt x="460" y="-240" on="1"/>
      </contour>
    </TTGlyph>
    <TTGlyph name="uniE022" xMin="460" yMin="-240" xMax="820" yMax="420">
      <contour>
        <pt x="820" y="420" on="1"/>
        <pt x="460" y="-240" on="1"/>
      </contour>
    </TTGlyph>
    <TTGlyph name="uniE023" xMin="460" yMin="-240" xMax="820" yMax="420">
      <contour>
        <pt x="820" y="420" on="1"/>
        <pt x="460" y="-240" on="1"/>
      </contour>
    </TTGlyph>
    <TTGlyph name="uniE024" xMin="460" yMin="-240" xMax="820" yMax="420">
      <contour>
        <pt x="820" y="420" on="1"/>
        <pt x="460" y="-240" on="1"/>
      </contour>
    </TTGlyph>
    <TTGlyph name="uniE025" xMin="460" yMin="-240" xMax="820" yMax="420">
      <contour>
        <pt x="820" y="420" on="1"/>
        <pt x="460" y="-240" on="1"/>
      </contour>
    </TTGlyph>
    <TTGlyph name="uniE026" xMin="460" yMin="-240" xMax="820" yMax="420">
      <contour>
        <pt x="820" y="420" on="1"/>
        <pt x="460" y="-240" on="1"/>
      </contour>
    </TTGlyph>
</ttFont>
